<mxfile host="app.diagrams.net" agent="Mozilla/5.0 (Windows NT 10.0; Win64; x64) AppleWebKit/537.36 (KHTML, like Gecko) Chrome/132.0.0.0 Safari/537.36" version="26.0.9">
  <diagram name="第 1 页" id="RY9VuhCQBu3e3PKlI8nn">
    <mxGraphModel dx="880" dy="468" grid="1" gridSize="10" guides="1" tooltips="1" connect="1" arrows="1" fold="1" page="1" pageScale="1" pageWidth="827" pageHeight="1169" math="0" shadow="0">
      <root>
        <mxCell id="0" />
        <mxCell id="1" parent="0" />
        <mxCell id="oAwJIYZqnAKYbgzXVkFr-1" value="" style="rounded=0;whiteSpace=wrap;html=1;" vertex="1" parent="1">
          <mxGeometry x="270" y="60" width="350" height="500" as="geometry" />
        </mxCell>
        <mxCell id="oAwJIYZqnAKYbgzXVkFr-2" value="个人中心" style="ellipse;whiteSpace=wrap;html=1;" vertex="1" parent="1">
          <mxGeometry x="310" y="70" width="90" height="50" as="geometry" />
        </mxCell>
        <mxCell id="oAwJIYZqnAKYbgzXVkFr-3" value="用户反馈" style="ellipse;whiteSpace=wrap;html=1;" vertex="1" parent="1">
          <mxGeometry x="310" y="140" width="90" height="50" as="geometry" />
        </mxCell>
        <mxCell id="oAwJIYZqnAKYbgzXVkFr-4" value="基数数据" style="ellipse;whiteSpace=wrap;html=1;" vertex="1" parent="1">
          <mxGeometry x="310" y="210" width="90" height="50" as="geometry" />
        </mxCell>
        <mxCell id="oAwJIYZqnAKYbgzXVkFr-5" value="图书订单" style="ellipse;whiteSpace=wrap;html=1;" vertex="1" parent="1">
          <mxGeometry x="310" y="280" width="90" height="50" as="geometry" />
        </mxCell>
        <mxCell id="oAwJIYZqnAKYbgzXVkFr-6" value="用户管理" style="ellipse;whiteSpace=wrap;html=1;" vertex="1" parent="1">
          <mxGeometry x="310" y="350" width="90" height="50" as="geometry" />
        </mxCell>
        <mxCell id="oAwJIYZqnAKYbgzXVkFr-7" value="图书留言" style="ellipse;whiteSpace=wrap;html=1;" vertex="1" parent="1">
          <mxGeometry x="310" y="420" width="90" height="50" as="geometry" />
        </mxCell>
        <mxCell id="oAwJIYZqnAKYbgzXVkFr-8" value="图书求购" style="ellipse;whiteSpace=wrap;html=1;" vertex="1" parent="1">
          <mxGeometry x="310" y="490" width="90" height="50" as="geometry" />
        </mxCell>
        <mxCell id="oAwJIYZqnAKYbgzXVkFr-10" style="rounded=0;orthogonalLoop=1;jettySize=auto;html=1;entryX=0;entryY=0.5;entryDx=0;entryDy=0;exitX=1;exitY=0.75;exitDx=0;exitDy=0;" edge="1" parent="1" source="oAwJIYZqnAKYbgzXVkFr-15" target="oAwJIYZqnAKYbgzXVkFr-2">
          <mxGeometry relative="1" as="geometry">
            <mxPoint x="150" y="255" as="sourcePoint" />
          </mxGeometry>
        </mxCell>
        <mxCell id="oAwJIYZqnAKYbgzXVkFr-11" style="rounded=0;orthogonalLoop=1;jettySize=auto;html=1;entryX=0;entryY=0.5;entryDx=0;entryDy=0;exitX=1;exitY=0.75;exitDx=0;exitDy=0;" edge="1" parent="1" source="oAwJIYZqnAKYbgzXVkFr-15" target="oAwJIYZqnAKYbgzXVkFr-3">
          <mxGeometry relative="1" as="geometry">
            <mxPoint x="150" y="261" as="sourcePoint" />
            <mxPoint x="320" y="105" as="targetPoint" />
          </mxGeometry>
        </mxCell>
        <mxCell id="oAwJIYZqnAKYbgzXVkFr-12" style="rounded=0;orthogonalLoop=1;jettySize=auto;html=1;entryX=0;entryY=0.5;entryDx=0;entryDy=0;exitX=1;exitY=0.75;exitDx=0;exitDy=0;" edge="1" parent="1" source="oAwJIYZqnAKYbgzXVkFr-15">
          <mxGeometry relative="1" as="geometry">
            <mxPoint x="150" y="260" as="sourcePoint" />
            <mxPoint x="310" y="234" as="targetPoint" />
          </mxGeometry>
        </mxCell>
        <mxCell id="oAwJIYZqnAKYbgzXVkFr-15" value="" style="shape=actor;whiteSpace=wrap;html=1;" vertex="1" parent="1">
          <mxGeometry x="120" y="250" width="40" height="60" as="geometry" />
        </mxCell>
        <mxCell id="oAwJIYZqnAKYbgzXVkFr-16" value="管理员" style="text;html=1;align=center;verticalAlign=middle;whiteSpace=wrap;rounded=0;" vertex="1" parent="1">
          <mxGeometry x="110" y="310" width="60" height="30" as="geometry" />
        </mxCell>
        <mxCell id="oAwJIYZqnAKYbgzXVkFr-18" style="rounded=0;orthogonalLoop=1;jettySize=auto;html=1;entryX=0;entryY=0.5;entryDx=0;entryDy=0;exitX=1;exitY=0.75;exitDx=0;exitDy=0;" edge="1" parent="1" source="oAwJIYZqnAKYbgzXVkFr-15" target="oAwJIYZqnAKYbgzXVkFr-5">
          <mxGeometry relative="1" as="geometry">
            <mxPoint x="160" y="270" as="sourcePoint" />
            <mxPoint x="320" y="244" as="targetPoint" />
          </mxGeometry>
        </mxCell>
        <mxCell id="oAwJIYZqnAKYbgzXVkFr-19" style="rounded=0;orthogonalLoop=1;jettySize=auto;html=1;entryX=0;entryY=0.5;entryDx=0;entryDy=0;exitX=1;exitY=0.75;exitDx=0;exitDy=0;" edge="1" parent="1" source="oAwJIYZqnAKYbgzXVkFr-15" target="oAwJIYZqnAKYbgzXVkFr-6">
          <mxGeometry relative="1" as="geometry">
            <mxPoint x="150" y="305" as="sourcePoint" />
            <mxPoint x="320" y="315" as="targetPoint" />
          </mxGeometry>
        </mxCell>
        <mxCell id="oAwJIYZqnAKYbgzXVkFr-20" style="rounded=0;orthogonalLoop=1;jettySize=auto;html=1;exitX=1;exitY=0.75;exitDx=0;exitDy=0;entryX=0;entryY=0.5;entryDx=0;entryDy=0;" edge="1" parent="1" source="oAwJIYZqnAKYbgzXVkFr-15" target="oAwJIYZqnAKYbgzXVkFr-7">
          <mxGeometry relative="1" as="geometry">
            <mxPoint x="160" y="315" as="sourcePoint" />
            <mxPoint x="320" y="385" as="targetPoint" />
          </mxGeometry>
        </mxCell>
        <mxCell id="oAwJIYZqnAKYbgzXVkFr-21" style="rounded=0;orthogonalLoop=1;jettySize=auto;html=1;exitX=1;exitY=0.75;exitDx=0;exitDy=0;entryX=-0.011;entryY=0.32;entryDx=0;entryDy=0;entryPerimeter=0;" edge="1" parent="1" source="oAwJIYZqnAKYbgzXVkFr-15" target="oAwJIYZqnAKYbgzXVkFr-8">
          <mxGeometry relative="1" as="geometry">
            <mxPoint x="170" y="325" as="sourcePoint" />
            <mxPoint x="320" y="455" as="targetPoint" />
          </mxGeometry>
        </mxCell>
        <mxCell id="oAwJIYZqnAKYbgzXVkFr-22" value="" style="shape=actor;whiteSpace=wrap;html=1;" vertex="1" parent="1">
          <mxGeometry x="680" y="240" width="40" height="60" as="geometry" />
        </mxCell>
        <mxCell id="oAwJIYZqnAKYbgzXVkFr-23" value="用户" style="text;html=1;align=center;verticalAlign=middle;whiteSpace=wrap;rounded=0;" vertex="1" parent="1">
          <mxGeometry x="670" y="295" width="60" height="30" as="geometry" />
        </mxCell>
        <mxCell id="oAwJIYZqnAKYbgzXVkFr-24" value="个人中心" style="ellipse;whiteSpace=wrap;html=1;" vertex="1" parent="1">
          <mxGeometry x="490" y="160" width="90" height="50" as="geometry" />
        </mxCell>
        <mxCell id="oAwJIYZqnAKYbgzXVkFr-25" value="图书求购" style="ellipse;whiteSpace=wrap;html=1;" vertex="1" parent="1">
          <mxGeometry x="490" y="245" width="90" height="50" as="geometry" />
        </mxCell>
        <mxCell id="oAwJIYZqnAKYbgzXVkFr-26" value="图书留言" style="ellipse;whiteSpace=wrap;html=1;" vertex="1" parent="1">
          <mxGeometry x="490" y="340" width="90" height="50" as="geometry" />
        </mxCell>
        <mxCell id="oAwJIYZqnAKYbgzXVkFr-27" value="图书管理" style="ellipse;whiteSpace=wrap;html=1;" vertex="1" parent="1">
          <mxGeometry x="490" y="430" width="90" height="50" as="geometry" />
        </mxCell>
        <mxCell id="oAwJIYZqnAKYbgzXVkFr-28" style="rounded=0;orthogonalLoop=1;jettySize=auto;html=1;entryX=1;entryY=0.5;entryDx=0;entryDy=0;" edge="1" parent="1" target="oAwJIYZqnAKYbgzXVkFr-24">
          <mxGeometry relative="1" as="geometry">
            <mxPoint x="680" y="290" as="sourcePoint" />
            <mxPoint x="320" y="105" as="targetPoint" />
          </mxGeometry>
        </mxCell>
        <mxCell id="oAwJIYZqnAKYbgzXVkFr-29" style="rounded=0;orthogonalLoop=1;jettySize=auto;html=1;entryX=0.978;entryY=0.38;entryDx=0;entryDy=0;entryPerimeter=0;exitX=0.167;exitY=-0.2;exitDx=0;exitDy=0;exitPerimeter=0;" edge="1" parent="1" source="oAwJIYZqnAKYbgzXVkFr-23" target="oAwJIYZqnAKYbgzXVkFr-25">
          <mxGeometry relative="1" as="geometry">
            <mxPoint x="690" y="289" as="sourcePoint" />
            <mxPoint x="590" y="195" as="targetPoint" />
          </mxGeometry>
        </mxCell>
        <mxCell id="oAwJIYZqnAKYbgzXVkFr-30" style="rounded=0;orthogonalLoop=1;jettySize=auto;html=1;entryX=1;entryY=0.5;entryDx=0;entryDy=0;exitX=0.167;exitY=-0.233;exitDx=0;exitDy=0;exitPerimeter=0;" edge="1" parent="1" source="oAwJIYZqnAKYbgzXVkFr-23" target="oAwJIYZqnAKYbgzXVkFr-26">
          <mxGeometry relative="1" as="geometry">
            <mxPoint x="700" y="299" as="sourcePoint" />
            <mxPoint x="588" y="274" as="targetPoint" />
          </mxGeometry>
        </mxCell>
        <mxCell id="oAwJIYZqnAKYbgzXVkFr-31" style="rounded=0;orthogonalLoop=1;jettySize=auto;html=1;exitX=0.15;exitY=-0.167;exitDx=0;exitDy=0;exitPerimeter=0;entryX=1;entryY=0.5;entryDx=0;entryDy=0;" edge="1" parent="1" source="oAwJIYZqnAKYbgzXVkFr-23" target="oAwJIYZqnAKYbgzXVkFr-27">
          <mxGeometry relative="1" as="geometry">
            <mxPoint x="710" y="309" as="sourcePoint" />
            <mxPoint x="590" y="375" as="targetPoint" />
          </mxGeometry>
        </mxCell>
      </root>
    </mxGraphModel>
  </diagram>
</mxfile>
